<svg id="レイヤー_1" data-name="レイヤー 1" xmlns="http://www.w3.org/2000/svg" viewBox="0 0 170 19"><defs><style>.cls-1,.cls-2{fill:#040000;}.cls-2,.cls-4{stroke:#040000;}.cls-2,.cls-3,.cls-4{stroke-linecap:round;stroke-linejoin:round;}.cls-2{stroke-width:0.42px;}.cls-3,.cls-4{fill:none;}.cls-3{stroke:#000;stroke-width:1.02px;}.cls-4{stroke-width:0.99px;}</style></defs><path class="cls-1" d="M3.32,4.54C3.44,7,3.48,8.05,3.48,9v6.56a.76.76,0,0,1-.79.73h0a.76.76,0,0,1-.83-.69V4.07A1.29,1.29,0,0,1,3,2.67h.18C4,2.67,4.42,3,4.84,4.19L6.91,9.9c.54,1.47.83,2.37,1.1,3.33h.08c.23-.82.63-2.06,1.09-3.33l2.1-5.71C11.7,3,12.09,2.67,13,2.67A1.3,1.3,0,0,1,14.3,3.93V15.6a.77.77,0,0,1-.81.73h0a.75.75,0,0,1-.82-.68V9c0-.93,0-2.06.15-4.45V4.3h-.1c-.38,1.26-1,3.14-1.4,4.18L9,14.71a1,1,0,0,1-1,.7.94.94,0,0,1-1-.7L4.81,8.48c-.37-.94-1.06-3-1.41-4.18H3.31Z"/><path class="cls-1" d="M28.91,9.47c0,4.27-2.25,7-5.79,7s-5.8-2.71-5.8-7,2.22-6.94,5.76-6.94S28.91,5.26,28.91,9.47Zm-9.74,0c0,3.33,1.58,5.52,3.95,5.52s3.94-2.21,3.94-5.52S25.52,4,23.06,4s-3.94,2.15-3.94,5.5Z"/><path class="cls-1" d="M33.17,15.48a.88.88,0,0,1-1.74,0V4.9a1.91,1.91,0,0,1,1.62-2.16,2.44,2.44,0,0,1,.54,0H35.3a6.56,6.56,0,0,1,3.08.64,3.41,3.41,0,0,1,1.81,3c0,1.79-1.29,3.06-3.45,3.39v.05a4.19,4.19,0,0,1,2,1.62,14.62,14.62,0,0,1,2.17,4.16c0,.38-.4.67-.94.67s-.68-.13-1-.92c-2-4.18-2.73-5-4.62-5H33.17ZM34.84,9c2.27,0,3.56-.93,3.56-2.52S37.17,4.09,35,4.09h-1.1c-.5,0-.75.23-.75.73V9Z"/><path class="cls-1" d="M45.29,15.56a.79.79,0,0,1-.83.75h0a.79.79,0,0,1-.86-.7V3.44a.77.77,0,0,1,.8-.75h.06a.79.79,0,0,1,.86.71V15.56Z"/><path class="cls-1" d="M55.52,5.66c-.15.83-.29,1.44-.69,3l-2,7.12a.82.82,0,0,1-.87.62c-.46,0-.69-.2-.85-.73L47.91,3.93a1.62,1.62,0,0,1-.11-.58.79.79,0,0,1,.82-.75h.06c.46,0,.71.25.87.85l1.77,6.79a34.06,34.06,0,0,1,.67,3.4h.08a28.33,28.33,0,0,1,.71-3.29l1.81-6.52a1,1,0,0,1,1-.69.92.92,0,0,1,1,.69l1.81,6.52c.25.89.52,2.16.71,3.29h.08a30.49,30.49,0,0,1,.67-3.4l1.7-6.77c.16-.62.41-.85.87-.85a.82.82,0,0,1,.89.72v0A1.94,1.94,0,0,1,63.2,4L60,15.65c-.16.51-.39.73-.83.73a.8.8,0,0,1-.89-.62l-2-7.12a29.73,29.73,0,0,1-.69-3Z"/><path class="cls-1" d="M65.24,15.55c-.19.6-.42.81-.91.81a.83.83,0,0,1-.92-.73,1.92,1.92,0,0,1,.15-.67l4-11.43a1.21,1.21,0,0,1,2.35,0l4,11.43a1.92,1.92,0,0,1,.15.67c0,.44-.36.73-.92.73s-.71-.21-.91-.81l-1-3.29h-5Zm4.27-8.44c-.15-.43-.6-2-.75-2.66h-.08c-.21.87-.56,2-.75,2.66l-1.21,3.81h4Z"/><path class="cls-1" d="M78.15,15.61a.79.79,0,0,1-.85.73h0a.77.77,0,0,1-.86-.67V3.43a.87.87,0,0,1,1.73,0V8.89l5.5-5.75c.33-.35.54-.46.79-.46a.85.85,0,0,1,.92.75v0a1,1,0,0,1-.32.69L80.57,8.61l5.16,6.31a1.22,1.22,0,0,1,.31.67.83.83,0,0,1-.9.75h0a1.1,1.1,0,0,1-.94-.54L79.46,9.63,78.15,11Z"/><path class="cls-1" d="M90.5,15.56a.79.79,0,0,1-.83.75h0a.79.79,0,0,1-.86-.7V3.44a.77.77,0,0,1,.8-.75h.06a.79.79,0,0,1,.86.71V15.56Z"/><path class="cls-1" d="M122.16,14.73c.17-.65.59-2,1-3.17L126,3.07c.21-.6.47-.84,1-.84a1,1,0,0,1,1,.84,2.39,2.39,0,0,1-.19.84l-4.55,12.64a1.24,1.24,0,0,1-1.64.58,1.17,1.17,0,0,1-.58-.58L116.47,3.87a2.56,2.56,0,0,1-.19-.77.93.93,0,0,1,.94-.91h.06c.5,0,.76.24,1,.84l2.83,8.49c.53,1.55.74,2.22,1,3.17Z"/><path class="cls-1" d="M132.13,3.56a1.25,1.25,0,1,1-1.24-1.22h0A1.26,1.26,0,0,1,132.13,3.56Zm-.33,12.76a.92.92,0,0,1-1,.81.9.9,0,0,1-.81-.81V7.46a.91.91,0,0,1,1-.81.92.92,0,0,1,.81.81Z"/><path class="cls-1" d="M142.52,2.51a.84.84,0,0,1,.83-.84h.07a.88.88,0,0,1,.93.83h0V16.39a.79.79,0,0,1-.79.79h-.05a.74.74,0,0,1-.76-.67l-.23-1a3.81,3.81,0,0,1-3.27,1.82c-2.62,0-4.37-2.18-4.37-5.48s1.79-5.37,4.39-5.37a3.78,3.78,0,0,1,3.21,1.68Zm-5.71,9.3c0,2.44,1.09,4,2.82,4a2.91,2.91,0,0,0,2.62-1.88,5.87,5.87,0,0,0,.31-2.08,4.67,4.67,0,0,0-.39-2.18A2.93,2.93,0,0,0,139.63,8C137.9,8,136.81,9.46,136.81,11.81Z"/><path class="cls-1" d="M148.67,12.08c.06,2.33,1.28,3.7,3.28,3.7a3.37,3.37,0,0,0,2.66-1.3c.25-.3.4-.38.63-.38a.78.78,0,0,1,.78.75c0,.28-.15.55-.53,1a4.56,4.56,0,0,1-3.61,1.45c-3,0-5-2.14-5-5.4s1.91-5.39,4.75-5.39a4.48,4.48,0,0,1,3,1.09,4.69,4.69,0,0,1,1.49,3.27,1,1,0,0,1-.8,1.17,1,1,0,0,1-.35,0ZM154,10.76a.31.31,0,0,0,.35-.28s0,0,0,0a3.06,3.06,0,0,0-.59-1.59,2.73,2.73,0,0,0-2.14-1,2.93,2.93,0,0,0-2.84,2.9Z"/><path class="cls-1" d="M168.19,11.87c0,3.19-2.05,5.42-5,5.42s-5-2.23-5-5.42,2.08-5.37,5-5.37S168.19,8.74,168.19,11.87Zm-8.16,0c0,2.33,1.28,3.93,3.17,3.93s3.12-1.62,3.12-4-1.32-4-3.17-4S160,9.58,160,11.87Z"/><polygon class="cls-2" points="101.84 7.11 101.85 10.68 107.18 8.67 101.84 7.11"/><path d="M108,.48h-.1a4.64,4.64,0,0,0-4.08,2.28A4.65,4.65,0,0,0,99.69.48h-.1A4.62,4.62,0,0,0,96.09,2a6.37,6.37,0,0,0-1.42,4.28c0,3.43,2.72,5.52,5.35,7.54a33.52,33.52,0,0,1,3,2.47l0,.05a1,1,0,0,0,.72.37h.06a1,1,0,0,0,.72-.37l0-.05a32.14,32.14,0,0,1,3-2.47c2.63-2,5.35-4.11,5.35-7.54S110.86.48,108,.48Zm-.08,11.79a49.18,49.18,0,0,0-4,3.31l-.06.07-.06-.07c-1.69-1.64-3.72-2.94-5.31-4.35a10.08,10.08,0,0,1-2-2.24,5,5,0,0,1-.75-2.67,5.3,5.3,0,0,1,1.15-3.58,3.55,3.55,0,0,1,2.73-1.21h.08a3.67,3.67,0,0,1,2.67,1.07,4.09,4.09,0,0,1,1.1,2.19.34.34,0,0,0,.34.29.34.34,0,0,0,.34-.29,4.07,4.07,0,0,1,1.09-2.19,3.67,3.67,0,0,1,2.67-1.07H108a3.54,3.54,0,0,1,2.73,1.21,5.31,5.31,0,0,1,1.16,3.58A5,5,0,0,1,111.09,9,12.88,12.88,0,0,1,107.88,12.27Z"/><path class="cls-3" d="M104.87,15.3a7.57,7.57,0,0,1-3.49,2.59,7.83,7.83,0,0,1-2.92.45"/><path class="cls-4" d="M102.63,15.24a9.9,9.9,0,0,0,2.85,2.2,8.81,8.81,0,0,0,3.25,1,9.05,9.05,0,0,0,1.74,0"/></svg>